<?xml version="1.0" encoding="UTF-8"?>
<svg id="Layer_2" data-name="Layer 2" xmlns="http://www.w3.org/2000/svg" viewBox="0 0 1264.86 213.95">
  <defs>
    <style>
      .cls-1 {
        fill: #fff;
      }

      .cls-2 {
        fill: #1dcc7c;
      }
    </style>
  </defs>
  <g id="Layer_1-2" data-name="Layer 1">
    <path class="cls-1" d="m63.24,70.24h23.28c7.66,0,13.86,6.21,13.86,13.86v4.57c0,7.66-6.21,13.86-13.86,13.86h-22.2v95.4c0,7.66-6.21,13.86-13.86,13.86h-14.26c-7.66,0-13.86-6.21-13.86-13.86v-95.4h-8.47c-7.66,0-13.86-6.21-13.86-13.86v-4.57c0-7.66,6.21-13.86,13.86-13.86h8.47v-6.46c0-16.5,4.89-29.6,14.67-39.29,9.78-9.69,23.55-14.53,41.31-14.53,6.28,0,12.25.67,17.9,2.02l.17.04c7.87,1.88,12.34,10.2,9.58,17.8l-1.67,4.6c-2.35,6.47-9,10.51-15.76,9.21-1.97-.38-4.04-.57-6.19-.57-12.74,0-19.11,7-19.11,20.99v6.19Z"/>
    <path class="cls-1" d="m242.21,80.87c12.02,10.68,18.03,26.78,18.03,48.31v66.25c0,9.04-7.33,16.37-16.37,16.37h-6.56c-9.04,0-16.37-7.33-16.37-16.37v-1.67c-7.9,13.46-22.61,20.18-44.14,20.18-11.13,0-20.77-1.88-28.93-5.65-8.17-3.77-14.4-8.97-18.7-15.61-4.31-6.63-6.46-14.17-6.46-22.6,0-13.46,5.07-24.04,15.21-31.76,10.13-7.71,25.79-11.57,46.96-11.57h33.37c0-9.15-2.78-16.19-8.34-21.12-5.56-4.93-13.91-7.4-25.03-7.4-7.72,0-15.3,1.21-22.74,3.63-2.01.65-3.94,1.37-5.78,2.15-7.93,3.34-17.09.1-21.02-7.55h0c-4.38-8.52-.51-18.91,8.32-22.61,4.01-1.68,8.29-3.15,12.83-4.41,11.03-3.05,22.38-4.58,34.04-4.58,22.43,0,39.65,5.34,51.67,16.01Zm-35.79,99.85c5.56-3.32,9.51-8.21,11.84-14.67v-14.8h-28.8c-17.22,0-25.84,5.65-25.84,16.95,0,5.38,2.11,9.65,6.32,12.78,4.21,3.14,10,4.71,17.36,4.71s13.54-1.66,19.11-4.98Z"/>
    <path class="cls-1" d="m332.63,12.11h0c11.59,0,20.99,9.4,20.99,20.99v157.71c0,11.59-9.4,20.99-20.99,20.99h0c-11.59,0-20.99-9.4-20.99-20.99V33.1c0-11.59,9.4-20.99,20.99-20.99Z"/>
    <path class="cls-1" d="m516.17,80.87c12.02,10.68,18.03,26.78,18.03,48.31v66.25c0,9.04-7.33,16.37-16.37,16.37h-6.56c-9.04,0-16.37-7.33-16.37-16.37v-1.67c-7.9,13.46-22.61,20.18-44.14,20.18-11.13,0-20.77-1.88-28.93-5.65-8.17-3.77-14.4-8.97-18.7-15.61-4.31-6.63-6.46-14.17-6.46-22.6,0-13.46,5.07-24.04,15.21-31.76,10.13-7.71,25.79-11.57,46.96-11.57h33.37c0-9.15-2.78-16.19-8.34-21.12-5.56-4.93-13.91-7.4-25.03-7.4-7.72,0-15.3,1.21-22.74,3.63-2.01.65-3.94,1.37-5.78,2.15-7.93,3.34-17.09.1-21.02-7.55h0c-4.38-8.52-.51-18.91,8.32-22.61,4.01-1.68,8.29-3.15,12.83-4.41,11.03-3.05,22.38-4.58,34.04-4.58,22.43,0,39.65,5.34,51.67,16.01Zm-35.79,99.85c5.56-3.32,9.51-8.21,11.84-14.67v-14.8h-28.8c-17.22,0-25.84,5.65-25.84,16.95,0,5.38,2.11,9.65,6.32,12.78,4.21,3.14,10,4.71,17.36,4.71s13.54-1.66,19.11-4.98Z"/>
    <path class="cls-1" d="m717.07,81c11.03,10.76,16.55,26.74,16.55,47.91v61.9c0,11.59-9.4,20.99-20.99,20.99h0c-11.59,0-20.99-9.4-20.99-20.99v-55.44c0-11.48-2.52-20.05-7.54-25.7-5.02-5.65-12.29-8.48-21.8-8.48-10.59,0-19.02,3.28-25.3,9.82-6.28,6.55-9.42,16.28-9.42,29.2v50.6c0,11.59-9.4,20.99-20.99,20.99h0c-11.59,0-20.99-9.4-20.99-20.99V33.1c0-11.59,9.4-20.99,20.99-20.99h0c11.59,0,20.99,9.4,20.99,20.99v48.98c5.56-5.56,12.29-9.82,20.18-12.78,7.89-2.96,16.5-4.44,25.84-4.44,17.94,0,32.43,5.38,43.46,16.15Z"/>
    <path class="cls-2" d="m845.43,70.24c5.78-2.43,12.16-4.04,19.14-4.83,5.5-.62,10.33,3.7,10.33,9.24v19.06c0,5.15-4.22,9.37-9.37,9.36h-.05c-12.02,0-21.44,3.36-28.26,10.09-6.82,6.73-10.23,16.82-10.23,30.28v49.25c0,10.55-8.55,19.11-19.11,19.11h-3.77c-10.55,0-19.11-8.55-19.11-19.11v-106.57c0-10.55,8.55-19.11,19.11-19.11h1.89c10.55,0,19.11,8.55,19.11,19.11h0c5.02-7,11.8-12.29,20.32-15.88Z"/>
    <path class="cls-2" d="m1022.65,80.87c12.02,10.68,18.03,26.78,18.03,48.31v66.25c0,9.04-7.33,16.37-16.37,16.37h-6.56c-9.04,0-16.37-7.33-16.37-16.37v-1.67c-7.9,13.46-22.61,20.18-44.14,20.18-11.13,0-20.77-1.88-28.93-5.65-8.17-3.77-14.4-8.97-18.7-15.61-4.31-6.63-6.46-14.17-6.46-22.6,0-13.46,5.07-24.04,15.21-31.76,10.13-7.71,25.79-11.57,46.96-11.57h33.37c0-9.15-2.78-16.19-8.34-21.12-5.56-4.93-13.91-7.4-25.03-7.4-7.72,0-15.3,1.21-22.74,3.63-2.01.65-3.94,1.37-5.78,2.15-7.93,3.34-17.09.1-21.02-7.55h0c-4.38-8.52-.51-18.91,8.32-22.61,4.01-1.68,8.29-3.15,12.83-4.41,11.03-3.05,22.38-4.58,34.04-4.58,22.43,0,39.65,5.34,51.67,16.01Zm-35.79,99.85c5.56-3.32,9.51-8.21,11.84-14.67v-14.8h-28.8c-17.22,0-25.84,5.65-25.84,16.95,0,5.38,2.11,9.65,6.32,12.78,4.21,3.14,10,4.71,17.36,4.71s13.55-1.66,19.11-4.98Z"/>
    <path class="cls-2" d="m1138.1,70.24h23.43c7.57,0,13.71,6.14,13.71,13.71v4.88c0,7.57-6.14,13.71-13.71,13.71h-22.35v95.56c0,7.57-6.14,13.71-13.71,13.71h-14.57c-7.57,0-13.71-6.14-13.71-13.71v-95.56h-8.63c-7.57,0-13.71-6.14-13.71-13.71v-4.88c0-7.57,6.14-13.71,13.71-13.71h8.63v-6.46c0-16.5,4.89-29.6,14.67-39.29,9.78-9.69,23.55-14.53,41.31-14.53,6.28,0,12.25.67,17.9,2.02l.17.04c7.87,1.88,12.34,10.2,9.58,17.8l-1.91,5.25c-2.3,6.34-8.9,9.82-15.52,8.55-1.97-.38-4.04-.57-6.19-.57-12.74,0-19.11,7-19.11,20.99v6.19Zm81.81-30.14c-4.84-4.48-7.27-10.05-7.27-16.69s2.42-12.2,7.27-16.69c4.84-4.48,11.12-6.73,18.84-6.73s13.99,2.15,18.84,6.46c4.84,4.3,7.27,9.69,7.27,16.15,0,7-2.42,12.78-7.27,17.36-4.84,4.58-11.13,6.86-18.84,6.86s-13.99-2.24-18.84-6.73Zm18.84,26.91h0c11.59,0,20.99,9.4,20.99,20.99v102.8c0,11.59-9.4,20.99-20.99,20.99h0c-11.59,0-20.99-9.4-20.99-20.99v-102.8c0-11.59,9.4-20.99,20.99-20.99Z"/>
  </g>
</svg>