<?xml version="1.0" encoding="UTF-8"?>
<svg id="Layer_2" data-name="Layer 2" xmlns="http://www.w3.org/2000/svg" viewBox="0 0 550.46 550.46">
  <defs>
    <style>
      .cls-1 {
        fill: #fff;
      }

      .cls-2 {
        fill: #141414;
      }

      .cls-3 {
        fill: #1dcc7c;
      }
    </style>
  </defs>
  <g id="Layer_1-2" data-name="Layer 1">
    <g>
      <path class="cls-2" d="m275.23,540.46c-70.85,0-137.45-27.59-187.54-77.68-50.1-50.1-77.68-116.7-77.68-187.54s27.59-137.45,77.68-187.54S204.38,10,275.23,10s137.45,27.59,187.54,77.68,77.68,116.7,77.68,187.54-27.59,137.45-77.68,187.54c-50.1,50.09-116.7,77.68-187.54,77.68Z"/>
      <path class="cls-3" d="m275.23,20c34.46,0,67.89,6.75,99.34,20.05,30.39,12.85,57.69,31.26,81.13,54.71s41.85,50.74,54.71,81.13c13.3,31.45,20.05,64.88,20.05,99.34s-6.75,67.89-20.05,99.34c-12.85,30.39-31.26,57.69-54.71,81.13-23.45,23.45-50.74,41.85-81.13,54.71-31.45,13.3-64.88,20.05-99.34,20.05s-67.89-6.75-99.34-20.05c-30.39-12.85-57.69-31.26-81.13-54.71-23.45-23.45-41.85-50.74-54.71-81.13-13.3-31.45-20.05-64.88-20.05-99.34s6.75-67.89,20.05-99.34c12.85-30.39,31.26-57.69,54.71-81.13,23.45-23.45,50.74-41.85,81.13-54.71,31.45-13.3,64.88-20.05,99.34-20.05m0-20C123.22,0,0,123.22,0,275.23s123.22,275.23,275.23,275.23,275.23-123.22,275.23-275.23S427.23,0,275.23,0h0Z"/>
    </g>
    <g>
      <path class="cls-1" d="m389.77,167.61c0,14.61-10.87,26.68-24.97,28.56h-105.5c-.21-.01-.43-.02-.64-.02s-.42,0-.63.02c-3.15.16-5.98,1.49-8.07,3.58-2.16,2.16-3.51,5.12-3.6,8.38,0,.11,0,.21,0,.32s0,.21,0,.32v163.66c0,7.65-2.99,14.61-7.87,19.77-5.25,5.57-12.69,9.04-20.94,9.04-14.69,0-26.81-10.98-28.58-25.19v-212.23c1.84-14.14,13.93-25.05,28.58-25.05h143.39c15.92,0,28.83,12.91,28.83,28.84Z"/>
      <path class="cls-3" d="m411.8,399.27c-8.93,3.47-18.65,5.38-28.82,5.38-19.33,0-37.05-6.89-50.85-18.33-17.6-14.61-28.82-36.67-28.82-61.34,0-12.17-9.87-22.04-22.04-22.04h-129.37c-15.92,0-28.82-12.9-28.82-28.82s12.9-28.82,28.82-28.82h129.37c19.33,0,37.05,6.89,50.85,18.33,12.15,10.09,21.25,23.72,25.73,39.3,2.01,7,3.09,14.39,3.09,22.04,0,33.84,21.1,62.75,50.85,74.29Z"/>
    </g>
  </g>
</svg>