<svg width="22" height="24" viewBox="0 0 22 24" fill="none" xmlns="http://www.w3.org/2000/svg">
<path d="M9.90684 0.256046C10.5019 -0.084579 11.277 -0.0861176 11.8716 0.256046C14.8629 1.94627 17.8551 3.63383 20.8458 5.32508C21.4083 5.64194 21.7846 6.26797 21.7789 6.91615V17.0852C21.7831 17.7602 21.3696 18.4012 20.7762 18.7108C17.7947 20.3917 14.8148 22.0747 11.8339 23.7556C11.2265 24.1029 10.4359 24.0761 9.84743 23.7004C8.9536 23.1822 8.05823 22.6666 7.16432 22.149C6.98165 22.0401 6.77574 21.9534 6.64675 21.7763C6.76078 21.6226 6.96464 21.6035 7.1303 21.5364C7.5034 21.4177 7.84608 21.2273 8.18884 21.0425C8.27551 20.9832 8.38133 21.0059 8.46442 21.059C9.22875 21.4972 9.98633 21.9482 10.7532 22.3822C10.9168 22.4767 11.0825 22.3513 11.2223 22.2733C14.148 20.6198 17.0773 18.9725 20.0025 17.3184C20.1109 17.2663 20.1708 17.1512 20.162 17.0325C20.1641 13.678 20.1625 10.3228 20.163 6.96829C20.1754 6.83358 20.0975 6.70972 19.9757 6.65459C17.0046 4.98138 14.035 3.3056 11.0645 1.63197C11.013 1.59658 10.952 1.5776 10.8896 1.57751C10.8271 1.57742 10.7661 1.59622 10.7145 1.63145C7.74393 3.3056 4.7749 4.98292 1.80432 6.65604C1.68294 6.71126 1.60148 6.83306 1.61593 6.96829C1.61644 10.3228 1.61593 13.678 1.61593 17.033C1.61078 17.0909 1.6235 17.1491 1.65238 17.1995C1.68127 17.25 1.72493 17.2904 1.77748 17.3153C2.57019 17.7649 3.36393 18.2112 4.15715 18.6592C4.60403 18.8997 5.1527 19.0427 5.64505 18.8584C6.07953 18.7025 6.38408 18.2592 6.37579 17.7979C6.37989 14.4629 6.37374 11.1274 6.37887 7.79297C6.36801 7.64492 6.50845 7.5226 6.65239 7.53654C7.03328 7.53397 7.41468 7.53141 7.79556 7.53756C7.95455 7.53397 8.06396 7.69339 8.0443 7.84254C8.04276 11.1986 8.0484 14.5548 8.04173 17.9109C8.04276 18.8053 7.6753 19.7785 6.84797 20.2162C5.82874 20.7442 4.56898 20.6322 3.56206 20.1259C2.69037 19.6908 1.85851 19.1774 1.00229 18.7113C0.407285 18.4033 -0.0041148 17.7597 7.35699e-05 17.0852V6.91615C-0.00616624 6.25456 0.385061 5.61715 0.965107 5.30491C3.94603 3.62264 6.92643 1.93909 9.90684 0.256046Z" fill="#8CC84B"/>
<path d="M12.5073 7.30024C13.8074 7.21655 15.1992 7.25066 16.3692 7.89114C17.275 8.38195 17.7771 9.41203 17.7931 10.4183C17.7678 10.5541 17.6259 10.629 17.4963 10.6196C17.1191 10.6191 16.7418 10.6248 16.3646 10.6171C16.2046 10.6232 16.1116 10.4757 16.0915 10.3342C15.9831 9.85275 15.7206 9.37587 15.2674 9.14363C14.5717 8.79531 13.765 8.81283 13.0064 8.8201C12.4526 8.8495 11.8571 8.89746 11.3879 9.22312C11.0277 9.46981 10.9183 9.9678 11.0469 10.3689C11.1681 10.6568 11.5005 10.7497 11.7725 10.8354C13.3393 11.2452 14.9996 11.2044 16.5364 11.7437C17.1727 11.9635 17.7952 12.3909 18.013 13.0571C18.2979 13.95 18.173 15.0173 17.5377 15.7341C17.0225 16.3239 16.2722 16.645 15.5239 16.8194C14.5283 17.0413 13.4952 17.047 12.4842 16.9484C11.5335 16.8401 10.5442 16.5903 9.81026 15.9425C9.18269 15.3976 8.87617 14.5486 8.9066 13.7291C8.91387 13.5907 9.05166 13.4942 9.18423 13.5056C9.56409 13.5025 9.94395 13.5015 10.3238 13.5061C10.4755 13.4953 10.588 13.6264 10.5958 13.7694C10.6659 14.2281 10.8383 14.7096 11.2383 14.9816C12.0104 15.4797 12.9791 15.4456 13.8631 15.4595C14.5954 15.427 15.4175 15.4172 16.0152 14.9331C16.3305 14.6571 16.4239 14.1951 16.3387 13.7978C16.2464 13.4623 15.8954 13.3059 15.5941 13.2037C14.0474 12.7144 12.3685 12.892 10.8368 12.3387C10.2149 12.1189 9.61358 11.7034 9.37467 11.0646C9.04131 10.1604 9.19406 9.042 9.89591 8.34938C10.5802 7.66044 11.5681 7.39512 12.5073 7.30015V7.30024Z" fill="#8CC84B"/>
</svg>
