<svg width="24" height="24" viewBox="0 0 24 24" fill="none" xmlns="http://www.w3.org/2000/svg">
<path d="M22.1065 18.4959C20.8007 18.4629 19.7886 18.5954 18.9398 18.9599C18.695 19.0592 18.3032 19.0593 18.2705 19.3742C18.4011 19.5067 18.4174 19.7222 18.5317 19.9044C18.7278 20.2357 19.0704 20.6831 19.3805 20.9152C19.7233 21.1802 20.0662 21.4453 20.4251 21.6773C21.0618 22.075 21.7801 22.3069 22.4003 22.7046C22.7596 22.9364 23.1185 23.2348 23.4776 23.4833C23.6572 23.6157 23.7714 23.8313 24 23.9141V23.8644C23.8856 23.7152 23.853 23.4999 23.7388 23.3342C23.5757 23.1685 23.4123 23.0193 23.2491 22.8536C22.7757 22.2075 22.1881 21.6441 21.5515 21.1802C21.0292 20.8157 19.8865 20.3186 19.6744 19.7055C19.6744 19.7055 19.658 19.689 19.6417 19.6725C20.0008 19.6393 20.4251 19.5067 20.768 19.4073C21.323 19.2581 21.829 19.2913 22.4003 19.1422C22.6615 19.0759 22.9227 18.993 23.1838 18.9102V18.7611C22.8901 18.4629 22.6779 18.0653 22.3677 17.7835C21.5352 17.0543 20.621 16.342 19.6744 15.7455C19.1683 15.4141 18.5153 15.1987 17.9767 14.917C17.781 14.8175 17.4544 14.7679 17.3402 14.6022C17.0463 14.2377 16.883 13.7573 16.6709 13.3264C16.1976 12.415 15.7404 11.4044 15.3323 10.4434C15.0387 9.79718 14.8591 9.15091 14.4999 8.55454C12.8187 5.73775 10.9905 4.03113 8.18296 2.35755C7.57894 2.00966 6.86074 1.86052 6.09356 1.67833C5.68563 1.66167 5.27741 1.62862 4.86938 1.61195C4.60818 1.49596 4.34699 1.1812 4.11844 1.03206C3.1882 0.435505 0.788533 -0.856748 0.102981 0.849876C-0.337791 1.9268 0.755977 2.98716 1.13126 3.53409C1.40897 3.91513 1.76793 4.34588 1.96383 4.77673C2.07811 5.05825 2.11066 5.35672 2.22494 5.6549C2.48623 6.38374 2.73091 7.19581 3.07383 7.87523C3.2534 8.22312 3.44921 8.58759 3.67776 8.90244C3.80836 9.08462 4.03681 9.16757 4.08588 9.46576C3.85743 9.79718 3.84101 10.2943 3.71031 10.7085C3.12271 12.5808 3.35135 14.9005 4.18374 16.2757C4.44484 16.6898 5.06519 17.6014 5.89766 17.2533C6.63228 16.9551 6.46903 16.0106 6.68107 15.1822C6.73023 14.9831 6.69758 14.8508 6.79544 14.7182V14.7514C7.02399 15.2152 7.25244 15.6627 7.46466 16.1266C7.97074 16.9384 8.85209 17.7835 9.58662 18.347C9.97851 18.6451 10.2886 19.1588 10.7783 19.341V19.2912H10.7456C10.6476 19.1421 10.5007 19.0759 10.3702 18.9598C10.0765 18.6617 9.74987 18.2972 9.52141 17.9657C8.83596 17.0378 8.23184 16.0105 7.69321 14.9501C7.43211 14.4366 7.20347 13.8732 6.99134 13.3596C6.89329 13.1605 6.89329 12.8624 6.73014 12.7631C6.48526 13.1276 6.12621 13.4424 5.94664 13.8897C5.63665 14.6022 5.60391 15.4804 5.48963 16.3916C5.42433 16.4083 5.45689 16.3916 5.42424 16.4249C4.90203 16.2922 4.72246 15.7455 4.52646 15.2815C4.03672 14.1052 3.95509 12.2163 4.37963 10.8576C4.49391 10.5096 4.98366 9.41614 4.78776 9.08472C4.68981 8.76987 4.36322 8.58759 4.18374 8.33912C3.97161 8.02427 3.74296 7.62676 3.59613 7.27867C3.20434 6.35079 3.00844 5.32348 2.58408 4.3956C2.38819 3.96475 2.04555 3.51752 1.76793 3.11982C1.45785 2.6725 1.11503 2.35755 0.870158 1.82738C0.788627 1.64519 0.674259 1.34691 0.804858 1.14806C0.837508 1.01549 0.902713 0.965873 1.03341 0.932731C1.24563 0.750355 1.84965 0.982349 2.06169 1.08178C2.66571 1.33015 3.17169 1.56233 3.67776 1.91023C3.90621 2.07594 4.15109 2.39079 4.44484 2.47364H4.78766C5.31006 2.58955 5.89757 2.50679 6.38731 2.65583C7.25253 2.93744 8.03594 3.35172 8.73791 3.79914C10.8763 5.17434 12.639 7.12953 13.8307 9.46576C14.0266 9.8467 14.1081 10.1949 14.2877 10.5924C14.6306 11.4044 15.055 12.2328 15.3976 13.0281C15.7404 13.8068 16.0669 14.6022 16.5566 15.2485C16.8015 15.5963 17.7808 15.7786 18.2215 15.9609C18.548 16.11 19.0541 16.2426 19.3479 16.4248C19.9028 16.7726 20.4578 17.1705 20.9802 17.5515C21.2414 17.7503 22.0574 18.1646 22.1065 18.4959Z" fill="#00546B"/>
<path d="M5.45673 4.09717C5.1793 4.09717 4.9835 4.1305 4.7876 4.18012V4.21326H4.82025C4.95094 4.4784 5.1793 4.66068 5.34246 4.89258C5.47315 5.15762 5.58733 5.42285 5.71802 5.68798C5.73425 5.67132 5.75058 5.65484 5.75058 5.65484C5.97922 5.48904 6.0934 5.224 6.0934 4.82629C5.99545 4.71039 5.97913 4.59439 5.8975 4.4784C5.79965 4.31259 5.58733 4.22983 5.45673 4.09717Z" fill="#00546B"/>
</svg>
