<svg width="24" height="22" viewBox="0 0 24 22" fill="none" xmlns="http://www.w3.org/2000/svg">
<path d="M7.30922 7.55331L11.8627 4.92438C11.9187 4.89203 11.9822 4.875 12.0469 4.875C12.1116 4.875 12.1751 4.89203 12.2311 4.92438L16.7845 7.55331C16.8405 7.58566 16.887 7.63217 16.9194 7.68817C16.9517 7.74416 16.9687 7.80768 16.9688 7.87234V13.1302C16.9688 13.2618 16.8985 13.3833 16.7845 13.4493L12.2311 16.0782C12.1751 16.1105 12.1116 16.1276 12.0469 16.1276C11.9822 16.1276 11.9187 16.1105 11.8627 16.0782L7.30922 13.4493C7.25322 13.4169 7.20672 13.3704 7.17438 13.3144C7.14205 13.2584 7.12502 13.1949 7.125 13.1302V7.87225C7.12509 7.74063 7.19531 7.61913 7.30922 7.55322" fill="#8080F2"/>
<path d="M23.8516 10.0704L18.4053 0.595314C18.2075 0.252751 17.842 0 17.4464 0H6.55365C6.15803 0 5.7924 0.252751 5.59459 0.595314L0.14836 10.0495C-0.0494532 10.3921 -0.0494532 10.8246 0.14836 11.1672L5.59459 20.5647C5.7924 20.9072 6.15803 21.0824 6.55365 21.0824H17.4463C17.8419 21.0824 18.2075 20.9125 18.4052 20.5698L23.8515 11.1571C24.0495 10.8146 24.0495 10.4129 23.8515 10.0704H23.8516ZM19.3417 14.6266C19.3417 14.7658 19.2579 14.8947 19.1372 14.9645L12.1998 18.967C12.14 19.0012 12.0724 19.0192 12.0035 19.0192C11.9347 19.0192 11.8671 19.0012 11.8073 18.967L4.86456 14.9645C4.7439 14.8947 4.65943 14.7659 4.65943 14.6265V6.62139C4.65943 6.48198 4.74268 6.35326 4.86343 6.28351L11.8005 2.28094C11.8602 2.24666 11.9278 2.22862 11.9966 2.22862C12.0655 2.22862 12.1331 2.24666 12.1928 2.28094L19.136 6.28351C19.2568 6.35326 19.3417 6.48198 19.3417 6.62139V14.6265V14.6266Z" fill="#4B32C3"/>
</svg>
