<svg width="22" height="24" viewBox="0 0 22 24" fill="none" xmlns="http://www.w3.org/2000/svg">
<path d="M21.162 0L19.2341 21.5975L10.568 24L1.92587 21.6009L0 0H21.162Z" fill="#264DE4"/>
<path d="M17.5836 20.2223L19.2312 1.76624H10.5811V22.1637L17.5836 20.2223Z" fill="#2965F1"/>
<path d="M4.41504 9.77771L4.65248 12.4269H10.581V9.77771H4.41504Z" fill="#EBEBEB"/>
<path d="M10.5811 4.41541H10.5719H3.93799L4.17882 7.06469H10.5811V4.41541Z" fill="#EBEBEB"/>
<path d="M10.5809 19.4143V16.658L10.5693 16.6611L7.6188 15.8644L7.43019 13.7515H5.99648H4.77075L5.14191 17.9112L10.5687 19.4177L10.5809 19.4143Z" fill="#EBEBEB"/>
<path d="M13.834 12.4268L13.5265 15.8627L10.5718 16.6602V19.4164L16.0029 17.9112L16.0427 17.4636L16.6653 10.489L16.7299 9.77757L17.2082 4.41541H10.5718V7.06469H14.3049L14.0638 9.77757H10.5718V12.4268H13.834Z" fill="white"/>
</svg>
