<svg width="24" height="24" viewBox="0 0 24 24" fill="none" xmlns="http://www.w3.org/2000/svg">
<path d="M4.25 0H19.75C22.1 0 24 1.9 24 4.25V19.15C24 21.5 22.1 23.4 19.75 23.4H4.25C1.9 23.4 0 21.5 0 19.15V4.25C0 1.9 1.9 0 4.25 0Z" fill="#001E36"/>
<path d="M5.3999 16.41V6.11995C5.3999 6.04995 5.4299 6.00995 5.4999 6.00995C5.6699 6.00995 5.8299 6.00995 6.0599 5.99995C6.2999 5.98995 6.5499 5.98995 6.8199 5.97995C7.0899 5.96995 7.3799 5.96995 7.6899 5.95995C7.9999 5.94995 8.2999 5.94995 8.5999 5.94995C9.4199 5.94995 10.0999 6.04995 10.6599 6.25995C11.1599 6.42995 11.6199 6.70995 11.9999 7.07995C12.3199 7.39995 12.5699 7.78995 12.7299 8.21995C12.8799 8.63995 12.9599 9.06995 12.9599 9.51995C12.9599 10.38 12.7599 11.09 12.3599 11.65C11.9599 12.21 11.3999 12.63 10.7499 12.87C10.0699 13.12 9.3199 13.21 8.4999 13.21C8.2599 13.21 8.0999 13.21 7.9999 13.2C7.8999 13.19 7.7599 13.19 7.5699 13.19V16.4C7.5799 16.47 7.5299 16.53 7.4599 16.54C7.4499 16.54 7.4399 16.54 7.4199 16.54H5.5199C5.4399 16.54 5.3999 16.5 5.3999 16.41ZM7.5799 7.93995V11.3C7.7199 11.31 7.8499 11.32 7.9699 11.32H8.4999C8.8899 11.32 9.2799 11.26 9.6499 11.14C9.9699 11.05 10.2499 10.86 10.4699 10.61C10.6799 10.36 10.7799 10.02 10.7799 9.57995C10.7899 9.26995 10.7099 8.95995 10.5499 8.68995C10.3799 8.42995 10.1399 8.22995 9.8499 8.11995C9.4799 7.96995 9.0799 7.90995 8.6699 7.91995C8.4099 7.91995 8.1799 7.91995 7.9899 7.92995C7.7899 7.91995 7.6499 7.92995 7.5799 7.93995Z" fill="#31A8FF"/>
<path d="M19.2001 10.6901C18.9001 10.5301 18.5801 10.4201 18.2401 10.3501C17.8701 10.2701 17.5001 10.2201 17.1201 10.2201C16.9201 10.2101 16.7101 10.2401 16.5201 10.2901C16.3901 10.3201 16.2801 10.3901 16.2101 10.4901C16.1601 10.5701 16.1301 10.6701 16.1301 10.7601C16.1301 10.8501 16.1701 10.9401 16.2301 11.0201C16.3201 11.1301 16.4401 11.2201 16.5701 11.2901C16.8001 11.4101 17.0401 11.5201 17.2801 11.6201C17.8201 11.8001 18.3401 12.0501 18.8201 12.3501C19.1501 12.5601 19.4201 12.8401 19.6101 13.1801C19.7701 13.5001 19.8501 13.8501 19.8401 14.2101C19.8501 14.6801 19.7101 15.1501 19.4501 15.5401C19.1701 15.9401 18.7801 16.2501 18.3301 16.4301C17.8401 16.6401 17.2401 16.7501 16.5201 16.7501C16.0601 16.7501 15.6101 16.7101 15.1601 16.6201C14.8101 16.5601 14.4601 16.4501 14.1401 16.3001C14.0701 16.2601 14.0201 16.1901 14.0301 16.1101V14.3701C14.0301 14.3401 14.0401 14.3001 14.0701 14.2801C14.1001 14.2601 14.1301 14.2701 14.1601 14.2901C14.5501 14.5201 14.9601 14.6801 15.4001 14.7801C15.7801 14.8801 16.1801 14.9301 16.5801 14.9301C16.9601 14.9301 17.2301 14.8801 17.4101 14.7901C17.5701 14.7201 17.6801 14.5501 17.6801 14.3701C17.6801 14.2301 17.6001 14.1001 17.4401 13.9701C17.2801 13.8401 16.9501 13.6901 16.4601 13.5001C15.9501 13.3201 15.4801 13.0801 15.0401 12.7801C14.7301 12.5601 14.4701 12.2701 14.2801 11.9301C14.1201 11.6101 14.0401 11.2601 14.0501 10.9101C14.0501 10.4801 14.1701 10.0701 14.3901 9.70005C14.6401 9.30005 15.0101 8.98005 15.4401 8.78005C15.9101 8.54005 16.5001 8.43005 17.2101 8.43005C17.6201 8.43005 18.0401 8.46005 18.4501 8.52005C18.7501 8.56005 19.0401 8.64005 19.3101 8.75005C19.3501 8.76005 19.3901 8.80005 19.4101 8.84005C19.4201 8.88005 19.4301 8.92005 19.4301 8.96005V10.5901C19.4301 10.6301 19.4101 10.6701 19.3801 10.6901C19.2901 10.7101 19.2401 10.7101 19.2001 10.6901Z" fill="#31A8FF"/>
</svg>
