<svg width="24" height="24" viewBox="0 0 24 24" fill="none" xmlns="http://www.w3.org/2000/svg">
<path d="M21.4976 4.6655C20.0469 2.78693 18.0717 1.38076 15.8218 0.624844C13.5718 -0.131075 11.1483 -0.202792 8.85756 0.418764C6.56686 1.04032 4.51194 2.32723 2.95268 4.11673C1.39342 5.90624 0.399865 8.11795 0.0976685 10.4722C-0.204528 12.8264 0.19821 15.2173 1.25495 17.3426C2.31168 19.4679 3.97495 21.2321 6.0344 22.4121C8.09384 23.592 10.457 24.1348 12.8249 23.9716C15.1928 23.8085 17.4591 22.9468 19.3373 21.4955C24.5798 17.444 25.5473 9.90987 21.4973 4.6655H21.4976Z" fill="#FF6C37"/>
<path d="M16.0473 7.64604L10.9875 12.746L9.55762 11.276C14.5376 6.29603 15.0375 6.74603 16.0477 7.64604H16.0473Z" fill="white"/>
<path d="M10.9875 12.8855C10.9427 12.8844 10.8999 12.8666 10.8675 12.8356L9.4275 11.3956C9.39507 11.3621 9.37695 11.3172 9.37695 11.2706C9.37695 11.2239 9.39507 11.1791 9.4275 11.1455C14.3374 6.23563 15.0075 6.4655 16.1674 7.5155C16.1868 7.53104 16.2023 7.55089 16.2127 7.57348C16.2231 7.59606 16.2282 7.62076 16.2274 7.64562C16.2349 7.69437 16.2161 7.74425 16.1775 7.77575L11.1176 12.836C11.0821 12.8685 11.0356 12.8864 10.9875 12.8859V12.8855ZM9.80737 11.2756L10.9875 12.4557L15.7875 7.65575C15.6218 7.44805 15.3853 7.30874 15.1233 7.26446C14.8613 7.22019 14.5921 7.27405 14.3674 7.41575C13.4974 7.80575 12.0975 8.99562 9.80737 11.2756Z" fill="#FF6C37"/>
<path d="M12.4376 14.1559L11.0576 12.7459L16.1175 7.74573C17.4776 9.07584 15.4575 11.2958 12.4376 14.1556V14.1559Z" fill="white"/>
<path d="M12.4377 14.336C12.3934 14.3324 12.3514 14.315 12.3177 14.2861L10.9077 12.9061C10.8866 12.8548 10.8866 12.7972 10.9077 12.746C10.8927 12.7039 10.8927 12.6579 10.9077 12.6158L15.9676 7.55599C16.0028 7.52292 16.0492 7.50452 16.0975 7.50452C16.1458 7.50452 16.1923 7.52292 16.2275 7.55599C16.3913 7.7068 16.5208 7.89114 16.607 8.09646C16.6933 8.30178 16.7343 8.52327 16.7273 8.74586C16.7273 10.0959 15.1872 11.7957 12.5675 14.276C12.5325 14.3106 12.4864 14.3318 12.4373 14.336H12.4377ZM11.3176 12.746L12.4475 13.8755C14.4473 11.9855 16.3576 10.0355 16.3673 8.71548C16.3782 8.43565 16.2857 8.1616 16.1075 7.94561L11.3176 12.746Z" fill="#FF6C37"/>
<path d="M9.5974 11.306L10.5975 12.3061C10.6039 12.3118 10.609 12.3187 10.6125 12.3264C10.616 12.3342 10.6178 12.3426 10.6178 12.3511C10.6178 12.3596 10.616 12.3681 10.6125 12.3758C10.609 12.3836 10.6039 12.3905 10.5975 12.3961L8.4874 12.8461C8.44481 12.8553 8.40038 12.8503 8.36087 12.8319C8.32137 12.8136 8.28896 12.7828 8.26858 12.7442C8.24819 12.7057 8.24095 12.6616 8.24796 12.6186C8.25497 12.5756 8.27585 12.5361 8.3074 12.506L9.5374 11.2861C9.5374 11.2861 9.57753 11.2861 9.5974 11.306Z" fill="white"/>
<path d="M8.43753 13.046C8.37085 13.0452 8.30551 13.0273 8.24774 12.994C8.18997 12.9607 8.14169 12.9132 8.10753 12.8559C8.06908 12.7834 8.05513 12.7004 8.06777 12.6193C8.08041 12.5382 8.11896 12.4633 8.17765 12.4059L9.39752 11.1759C9.44151 11.1366 9.49845 11.1149 9.55746 11.1149C9.61646 11.1149 9.6734 11.1366 9.71739 11.1759L10.7175 12.1761C10.7768 12.2323 10.8 12.3174 10.7775 12.3962C10.755 12.4749 10.689 12.5375 10.6076 12.5563L8.49752 13.0063L8.43753 13.046ZM9.55764 11.5262L8.42778 12.6561L10.2979 12.2559L9.55764 11.5262Z" fill="#FF6C37"/>
<path d="M18.7378 4.83577C18.014 4.13752 16.877 4.10827 16.118 4.76714C15.359 5.42602 15.2292 6.55701 15.8202 7.37076C16.4112 8.18451 17.5254 8.41251 18.3879 7.89576L17.0277 6.53564L18.7378 4.83577Z" fill="white"/>
<path d="M17.3878 8.35552C16.9719 8.35019 16.5669 8.22261 16.2231 7.98869C15.8792 7.75477 15.6119 7.42484 15.4542 7.04002C15.2967 6.65549 15.2554 6.23322 15.3354 5.82545C15.4154 5.41768 15.6131 5.0423 15.9042 4.74576C16.3046 4.35275 16.8432 4.13257 17.4043 4.13257C17.9653 4.13257 18.5039 4.35275 18.9043 4.74576C18.9425 4.77801 18.9643 4.82564 18.9643 4.87589C18.9642 4.90061 18.9588 4.92503 18.9484 4.94748C18.9381 4.96993 18.923 4.98989 18.9043 5.00601L17.2843 6.53602L18.5143 7.74614C18.5342 7.76517 18.5492 7.78879 18.5579 7.81494C18.5665 7.84109 18.5687 7.86897 18.5641 7.89614C18.5612 7.92236 18.5525 7.94761 18.5387 7.97009C18.5249 7.99258 18.5063 8.01176 18.4843 8.02627C18.1538 8.23281 17.774 8.34678 17.3844 8.35627L17.3878 8.35552ZM17.3878 4.47539C16.6753 4.47914 16.0377 4.90776 15.7704 5.56289C15.503 6.21802 15.6485 6.97214 16.148 7.47539C16.3965 7.72529 16.7146 7.89433 17.0607 7.96037C17.4069 8.02641 17.7649 7.98638 18.0879 7.84552L16.9078 6.66539C16.889 6.65039 16.8738 6.63136 16.8634 6.60971C16.853 6.58806 16.8476 6.56435 16.8476 6.54033C16.8476 6.51631 16.853 6.49259 16.8634 6.47095C16.8738 6.4493 16.889 6.43027 16.9078 6.41527L18.4678 4.84514C18.1577 4.60748 17.7785 4.47752 17.3878 4.47501V4.47539Z" fill="#FF6C37"/>
<path d="M18.7676 4.86572L17.0576 6.56559L18.4177 7.92571C18.5546 7.84712 18.6821 7.75314 18.7976 7.64559C19.1541 7.2688 19.3502 6.76825 19.3446 6.24959C19.339 5.73093 19.1321 5.23473 18.7676 4.86572Z" fill="white"/>
<path d="M18.3874 8.07579C18.365 8.07701 18.3425 8.07316 18.3217 8.06452C18.301 8.05589 18.2824 8.04269 18.2674 8.02592L16.9073 6.66579C16.8885 6.65079 16.8734 6.63176 16.863 6.61011C16.8526 6.58846 16.8472 6.56475 16.8472 6.54073C16.8472 6.5167 16.8526 6.49299 16.863 6.47134C16.8734 6.44969 16.8885 6.43066 16.9073 6.41566L18.6072 4.74578C18.6236 4.72103 18.6459 4.70073 18.6721 4.68668C18.6982 4.67263 18.7275 4.66528 18.7572 4.66528C18.7869 4.66528 18.8161 4.67263 18.8423 4.68668C18.8685 4.70073 18.8908 4.72103 18.9072 4.74578C19.1067 4.94131 19.2653 5.17469 19.3735 5.43226C19.4817 5.68983 19.5375 5.9664 19.5375 6.24579C19.5375 6.52517 19.4817 6.80174 19.3735 7.05931C19.2653 7.31688 19.1067 7.55026 18.9072 7.74579C18.7895 7.87065 18.6548 7.97833 18.507 8.06567C18.4699 8.08441 18.4269 8.08804 18.387 8.07579H18.3874ZM17.2875 6.53604L18.4174 7.66592C18.4951 7.61144 18.5687 7.55127 18.6375 7.48591C18.9697 7.15467 19.1568 6.70513 19.1577 6.23604C19.1584 5.81624 19.0054 5.4107 18.7275 5.09604L17.2875 6.53604Z" fill="#FF6C37"/>
<path d="M16.2573 7.85607C16.1219 7.72888 15.943 7.65808 15.7572 7.65808C15.5714 7.65808 15.3926 7.72888 15.2572 7.85607L10.7275 12.3756L11.4775 13.1357L16.2674 8.9357C16.3405 8.86569 16.3984 8.78147 16.4377 8.68822C16.477 8.59498 16.4967 8.49468 16.4958 8.39351C16.4948 8.29234 16.4732 8.19243 16.4322 8.09993C16.3912 8.00744 16.3316 7.92432 16.2573 7.8557V7.85607Z" fill="white"/>
<path d="M11.4375 13.316C11.3927 13.3149 11.3499 13.2971 11.3175 13.2661L10.5574 12.506C10.525 12.4724 10.5068 12.4276 10.5068 12.3809C10.5068 12.3342 10.525 12.2894 10.5574 12.2558L15.0874 7.74571C15.2179 7.61539 15.3845 7.52727 15.5656 7.49279C15.7468 7.45831 15.9341 7.47905 16.1034 7.55233C16.2726 7.62561 16.4159 7.74804 16.5147 7.90375C16.6135 8.05946 16.6633 8.24126 16.6575 8.42558C16.6523 8.55069 16.6222 8.67351 16.5689 8.78684C16.5157 8.90016 16.4404 9.00173 16.3474 9.08558L11.5575 13.2856C11.5227 13.3102 11.4798 13.3209 11.4375 13.3156V13.316ZM10.9076 12.3755L11.4075 12.8855L16.1074 8.79533C16.2236 8.69408 16.293 8.54933 16.2975 8.39521C16.302 8.24108 16.2412 8.09033 16.1276 7.98533C16.0227 7.88084 15.8806 7.82218 15.7326 7.82218C15.5845 7.82218 15.4424 7.88084 15.3375 7.98533L10.9076 12.3755Z" fill="#FF6C37"/>
<path d="M7.2177 17.5257C7.2049 17.5431 7.198 17.5642 7.198 17.5857C7.198 17.6073 7.2049 17.6284 7.2177 17.6457L7.41757 18.5157C7.42558 18.5669 7.41799 18.6194 7.39578 18.6662C7.37357 18.713 7.33778 18.7521 7.29307 18.7782C7.24852 18.8043 7.19684 18.8156 7.14549 18.8104C7.09414 18.8052 7.04576 18.7838 7.00732 18.7494L5.63745 17.4294L9.90756 13.1255H11.3877L12.3878 14.1256C10.8277 15.4896 9.08817 16.6336 7.2177 17.5257Z" fill="white"/>
<path d="M7.12777 18.9957C7.01452 18.9935 6.90277 18.947 6.82777 18.8656L5.51789 17.5557C5.49913 17.5407 5.48398 17.5217 5.47358 17.5C5.46317 17.4784 5.45776 17.4547 5.45776 17.4307C5.45776 17.4066 5.46317 17.3829 5.47358 17.3613C5.48398 17.3396 5.49913 17.3206 5.51789 17.3056L9.81764 12.9957C9.84171 12.9701 9.87318 12.9527 9.90764 12.9458H11.3975C11.4363 12.9321 11.4787 12.9321 11.5175 12.9458L12.5176 13.946C12.5367 13.9635 12.5511 13.9854 12.5598 14.0098C12.5685 14.0341 12.5711 14.0602 12.5675 14.0858C12.5682 14.1107 12.5632 14.1354 12.5528 14.1579C12.5424 14.1805 12.5269 14.2004 12.5075 14.216L12.4276 14.2861C10.8612 15.592 9.1379 16.6971 7.29764 17.576L7.48776 18.386C7.50246 18.4484 7.50302 18.5134 7.48941 18.5762C7.4758 18.6389 7.44835 18.6978 7.40908 18.7486C7.3698 18.7993 7.31969 18.8407 7.2624 18.8696C7.2051 18.8986 7.14206 18.9144 7.07789 18.9158L7.12777 18.9957ZM5.90789 17.4256L7.08764 18.6155C7.09863 18.6253 7.11285 18.6307 7.12758 18.6307C7.14231 18.6307 7.15652 18.6253 7.16752 18.6155C7.17487 18.6052 7.17883 18.593 7.17883 18.5804C7.17883 18.5678 7.17487 18.5555 7.16752 18.5453L6.96764 17.6753C6.95189 17.6129 6.95822 17.5469 6.98556 17.4886C7.0129 17.4303 7.05956 17.3833 7.11764 17.3555C8.90843 16.4884 10.5873 15.4071 12.1175 14.1353L11.2974 13.3152H9.95751L5.90789 17.4256Z" fill="#FF6C37"/>
<path d="M4.60765 18.4558L5.60778 17.4557L7.1479 18.9958L4.69803 18.8259C4.65597 18.8226 4.61602 18.8061 4.58389 18.7788C4.55176 18.7514 4.52909 18.7146 4.51911 18.6737C4.50913 18.6327 4.51236 18.5896 4.52832 18.5505C4.54429 18.5115 4.57219 18.4784 4.60803 18.4562L4.60765 18.4558Z" fill="white"/>
<path d="M7.17759 19.1457L4.73748 18.9758C4.59273 18.9623 4.46823 18.8633 4.41723 18.731C4.36623 18.5986 4.39735 18.4415 4.49748 18.3357L5.4976 17.3356C5.53116 17.3032 5.576 17.285 5.62266 17.285C5.66932 17.285 5.71416 17.3032 5.74772 17.3356L7.27772 18.8656C7.2989 18.8946 7.31031 18.9296 7.31031 18.9655C7.31031 19.0014 7.2989 19.0364 7.27772 19.0655C7.25458 19.1029 7.2192 19.1311 7.17759 19.1453V19.1457ZM4.73748 18.5858L6.73734 18.716L5.63747 17.6858L4.73748 18.5858Z" fill="#FF6C37"/>
<path d="M11.5274 13.2462L9.50732 13.5564L10.6773 12.3965L11.5274 13.2462Z" fill="white"/>
<path d="M9.50735 13.7457C9.47378 13.7466 9.44069 13.7376 9.41221 13.7198C9.38374 13.702 9.36114 13.6762 9.34723 13.6456C9.32594 13.6166 9.31445 13.5816 9.31445 13.5457C9.31445 13.5097 9.32594 13.4747 9.34723 13.4457L10.5071 12.2757C10.5423 12.2427 10.5887 12.2242 10.637 12.2242C10.6853 12.2242 10.7318 12.2427 10.767 12.2757L11.6174 13.1255C11.6344 13.1524 11.6435 13.1836 11.6435 13.2155C11.6435 13.2473 11.6344 13.2785 11.6174 13.3055C11.6091 13.3383 11.5915 13.3681 11.5667 13.3911C11.5419 13.4142 11.5109 13.4297 11.4776 13.4356L9.47773 13.7457H9.50735ZM10.6773 12.6556L10.0275 13.3055L11.1476 13.1356L10.6773 12.6556Z" fill="#FF6C37"/>
<path d="M11.5275 13.2455L10.1175 13.4255C10.0798 13.4341 10.0403 13.4303 10.0049 13.4146C9.96955 13.399 9.94014 13.3724 9.92107 13.3387C9.90201 13.305 9.8943 13.2661 9.89909 13.2277C9.90388 13.1893 9.92092 13.1535 9.94767 13.1255L10.6778 12.3954L11.5275 13.2455Z" fill="white"/>
<path d="M10.0774 13.616C10.012 13.6154 9.94802 13.5975 9.89184 13.5641C9.83565 13.5307 9.78931 13.483 9.75753 13.4259C9.71934 13.3574 9.70454 13.2784 9.71537 13.2007C9.7262 13.1231 9.76207 13.0511 9.81753 12.9957L10.5477 12.2656C10.5828 12.2326 10.6293 12.2142 10.6776 12.2142C10.7259 12.2142 10.7723 12.2326 10.8075 12.2656L11.6577 13.1157C11.6829 13.1397 11.7007 13.1705 11.7089 13.2043C11.717 13.2382 11.7151 13.2737 11.7035 13.3065C11.6919 13.3394 11.671 13.3681 11.6433 13.3893C11.6157 13.4105 11.5825 13.4232 11.5478 13.4259L10.1479 13.6059L10.0774 13.616ZM10.0774 13.2459L11.1375 13.1157L10.6677 12.6459L10.0677 13.2459H10.0774ZM18.7774 6.01586C18.7586 5.98431 18.7288 5.96076 18.6937 5.9497C18.6587 5.93864 18.6208 5.94083 18.5873 5.95586C18.5707 5.96425 18.556 5.97587 18.544 5.99004C18.5321 6.00421 18.523 6.02064 18.5175 6.03836C18.5064 6.07411 18.5099 6.11282 18.5273 6.14599C18.5974 6.29336 18.5779 6.46774 18.4774 6.59599C18.4649 6.60834 18.4551 6.62315 18.4487 6.63948C18.4422 6.65582 18.4392 6.67331 18.4399 6.69086C18.4403 6.72603 18.4536 6.75982 18.4774 6.78574C18.5031 6.79587 18.5316 6.79587 18.5573 6.78574C18.5806 6.79159 18.605 6.79094 18.6279 6.78387C18.6509 6.7768 18.6715 6.76356 18.6874 6.74561C18.7697 6.64479 18.8219 6.52274 18.8378 6.39354C18.8537 6.26435 18.8328 6.13328 18.7774 6.01549V6.01586Z" fill="#FF6C37"/>
</svg>
