<svg width="72" height="72" viewBox="0 0 72 72" fill="none" xmlns="http://www.w3.org/2000/svg">
<path d="M36 14.6039C26.3997 14.6039 20.3999 19.4027 17.9996 28.9994C21.6 24.2006 25.8001 22.4017 30.5998 23.6009C33.3386 24.2852 35.2959 26.2722 37.4631 28.4709C40.9924 32.0524 45.0772 36.1975 54.0005 36.1975C63.5999 36.1975 69.6006 31.3988 72 21.8012C68.4005 26.6 64.2004 28.3997 59.3998 27.2005C56.6619 26.5162 54.7045 24.5292 52.5374 22.3306C49.0081 18.749 44.9223 14.6039 36 14.6039V14.6039ZM17.9996 36.1975C8.40015 36.1975 2.3994 40.9963 0 50.5939C3.59955 45.7951 7.79963 43.9954 12.6002 45.1955C15.3382 45.8807 17.2955 47.8668 19.4626 50.0645C22.9919 53.6461 27.0777 57.7921 36 57.7921C45.6003 57.7921 51.6002 52.9933 54.0005 43.3957C50.4 48.1945 46.1999 49.9943 41.4002 48.7941C38.6614 48.1108 36.7041 46.1228 34.537 43.9251C31.0076 40.3436 26.9228 36.1975 17.9996 36.1975V36.1975Z" fill="#06B6D4"/>
</svg>
