<svg width="16" height="24" viewBox="0 0 16 24" fill="none" xmlns="http://www.w3.org/2000/svg">
<path d="M4 24C6.208 24 8 22.208 8 20V16H4C1.792 16 0 17.792 0 20C0 22.208 1.792 24 4 24Z" fill="#0ACF83"/>
<path d="M0 12C0 9.79198 1.792 7.99998 4 7.99998H8V16H4C1.792 16 0 14.208 0 12Z" fill="#A259FF"/>
<path d="M0 4C0 1.792 1.792 0 4 0H8V7.99998H4C1.792 7.99998 0 6.208 0 4Z" fill="#F24E1E"/>
<path d="M8 0H12C14.208 0 16 1.792 16 4C16 6.208 14.208 8 12 8L8 7.99998V0Z" fill="#FF7262"/>
<path d="M16 12C16 14.208 14.208 16 12 16C9.792 16 8 14.208 8 12C8 9.79199 9.792 8 12 8C14.208 8 16 9.79199 16 12Z" fill="#1ABCFE"/>
</svg>
