<svg width="24" height="24" viewBox="0 0 24 24" fill="none" xmlns="http://www.w3.org/2000/svg">
<path d="M4.25 0H19.75C22.1 0 24 1.9 24 4.25V19.15C24 21.5 22.1 23.4 19.75 23.4H4.25C1.9 23.4 0 21.5 0 19.15V4.25C0 1.9 1.9 0 4.25 0Z" fill="#330000"/>
<path d="M11.6301 14.04H7.91006L7.15006 16.39C7.13006 16.48 7.05006 16.54 6.96006 16.53H5.08006C4.97006 16.53 4.94006 16.47 4.97006 16.35L8.19006 7.07999C8.22006 6.97999 8.25006 6.86999 8.29006 6.74999C8.33006 6.53999 8.35006 6.31999 8.35006 6.09999C8.34006 6.04999 8.38006 5.99999 8.43006 5.98999C8.44006 5.98999 8.45006 5.98999 8.46006 5.98999H11.0201C11.1001 5.98999 11.1401 6.01999 11.1501 6.06999L14.8001 16.37C14.8301 16.48 14.8001 16.53 14.7001 16.53H12.6101C12.5401 16.54 12.4701 16.49 12.4501 16.42L11.6301 14.04ZM8.49006 12.01H11.0301C10.9701 11.8 10.8901 11.55 10.8001 11.29C10.7101 11.02 10.6201 10.73 10.5301 10.43C10.4301 10.12 10.3401 9.81999 10.2401 9.50999C10.1401 9.19999 10.0501 8.90999 9.97006 8.61999C9.89006 8.33999 9.82006 8.07999 9.75006 7.83999H9.73006C9.64006 8.26999 9.53006 8.69999 9.39006 9.12999C9.24006 9.60999 9.09006 10.11 8.93006 10.61C8.79006 11.12 8.64006 11.59 8.49006 12.01Z" fill="#FF9A00"/>
<path d="M16.98 7.69994C16.65 7.70994 16.33 7.57994 16.09 7.34994C15.86 7.09994 15.74 6.76994 15.75 6.42994C15.74 6.08994 15.87 5.76994 16.11 5.53994C16.35 5.30994 16.67 5.18994 17 5.18994C17.39 5.18994 17.69 5.30994 17.91 5.53994C18.13 5.77994 18.25 6.09994 18.24 6.42994C18.25 6.76994 18.13 7.09994 17.89 7.34994C17.66 7.58994 17.32 7.71994 16.98 7.69994ZM15.86 16.3799V8.67994C15.86 8.57994 15.9 8.53994 15.99 8.53994H17.97C18.06 8.53994 18.1 8.58994 18.1 8.67994V16.3799C18.1 16.4899 18.06 16.5399 17.97 16.5399H16.01C15.91 16.5399 15.86 16.4799 15.86 16.3799Z" fill="#FF9A00"/>
</svg>
