<svg width="25" height="24" viewBox="0 0 25 24" fill="none" xmlns="http://www.w3.org/2000/svg">
<path d="M12.3537 14.1159C13.5223 14.1159 14.4696 13.1686 14.4696 12.0001C14.4696 10.8315 13.5223 9.88416 12.3537 9.88416C11.1851 9.88416 10.2378 10.8315 10.2378 12.0001C10.2378 13.1686 11.1851 14.1159 12.3537 14.1159Z" fill="#61DAFB"/>
<path fill-rule="evenodd" clip-rule="evenodd" d="M2.29417 10.7581C1.79382 11.2097 1.5999 11.6305 1.5999 12.0001C1.5999 12.3697 1.79382 12.7904 2.29417 13.2421C2.79445 13.6937 3.55207 14.1279 4.53931 14.5048C6.50968 15.2572 9.27224 15.7351 12.3535 15.7351C15.4347 15.7351 18.1973 15.2572 20.1677 14.5048C21.1549 14.1279 21.9125 13.6937 22.4128 13.2421C22.9132 12.7904 23.1071 12.3697 23.1071 12.0001C23.1071 11.6305 22.9132 11.2097 22.4128 10.7581C21.9125 10.3064 21.1549 9.87224 20.1677 9.49529C18.1973 8.74297 15.4347 8.26506 12.3535 8.26506C9.27224 8.26506 6.50968 8.74297 4.53931 9.49529C3.55207 9.87224 2.79445 10.3064 2.29417 10.7581ZM4.11127 8.37423C6.25009 7.55758 9.16433 7.06506 12.3535 7.06506C15.5426 7.06506 18.4569 7.55758 20.5957 8.37423C21.6631 8.78176 22.5681 9.28166 23.2169 9.86732C23.8656 10.4529 24.3071 11.1726 24.3071 12.0001C24.3071 12.8275 23.8656 13.5472 23.2169 14.1328C22.5681 14.7185 21.6631 15.2184 20.5957 15.6259C18.4569 16.4426 15.5426 16.9351 12.3535 16.9351C9.16433 16.9351 6.25009 16.4426 4.11127 15.6259C3.04392 15.2184 2.13884 14.7185 1.49008 14.1328C0.841378 13.5472 0.399902 12.8275 0.399902 12.0001C0.399902 11.1726 0.841378 10.4529 1.49008 9.86732C2.13884 9.28166 3.04392 8.78176 4.11127 8.37423Z" fill="#61DAFB"/>
<path fill-rule="evenodd" clip-rule="evenodd" d="M8.39954 2.6674C7.7582 2.45993 7.29689 2.50234 6.97679 2.68715C6.6567 2.87196 6.38931 3.25026 6.24832 3.90941C6.10735 4.56848 6.11012 5.44169 6.2773 6.48515C6.61095 8.56769 7.57835 11.1991 9.11898 13.8675C10.6596 16.536 12.4548 18.6895 14.0915 20.0197C14.9115 20.6862 15.6664 21.1252 16.3076 21.3327C16.949 21.5401 17.4103 21.4977 17.7304 21.3129C18.0505 21.1281 18.3179 20.7498 18.4589 20.0907C18.5998 19.4316 18.5971 18.5584 18.4299 17.5149C18.0962 15.4324 17.1288 12.801 15.5882 10.1325C14.0476 7.46409 12.2524 5.31059 10.6157 3.98037C9.79563 3.31386 9.04079 2.87485 8.39954 2.6674ZM11.3726 3.04914C13.1492 4.49309 15.0328 6.77063 16.6274 9.53253C18.222 12.2944 19.2526 15.0645 19.6148 17.3251C19.7955 18.4532 19.8151 19.487 19.6323 20.3416C19.4495 21.1962 19.047 21.9384 18.3304 22.3521C17.6138 22.7659 16.7698 22.7434 15.9383 22.4744C15.1067 22.2054 14.2212 21.6715 13.3346 20.9509C11.558 19.507 9.67433 17.2294 8.07975 14.4675C6.48517 11.7056 5.45459 8.93558 5.09241 6.67498C4.91167 5.54686 4.89206 4.51309 5.07486 3.65842C5.25765 2.80383 5.66019 2.06165 6.37679 1.64792C7.0934 1.23419 7.93741 1.25667 8.7689 1.52566C9.60047 1.79468 10.4859 2.32855 11.3726 3.04914Z" fill="#61DAFB"/>
<path fill-rule="evenodd" clip-rule="evenodd" d="M18.4589 3.90934C18.3179 3.25019 18.0505 2.87189 17.7304 2.68708C17.4103 2.50228 16.949 2.45986 16.3077 2.66734C15.6664 2.87479 14.9116 3.31379 14.0915 3.9803C12.4548 5.31052 10.6596 7.46402 9.11901 10.1325C7.57838 12.8009 6.61098 15.4323 6.27732 17.5148C6.11015 18.5583 6.10738 19.4315 6.24835 20.0906C6.38933 20.7497 6.65673 21.128 6.97682 21.3128C7.29692 21.4976 7.75823 21.5401 8.39957 21.3326C9.04082 21.1251 9.79566 20.6861 10.6157 20.0196C12.2524 18.6894 14.0476 16.5359 15.5882 13.8675C17.1289 11.199 18.0963 8.56762 18.4299 6.48508C18.5971 5.44162 18.5999 4.56841 18.4589 3.90934ZM19.6148 6.67491C19.2526 8.93551 18.222 11.7056 16.6275 14.4675C15.0329 17.2294 13.1492 19.5069 11.3726 20.9509C10.486 21.6714 9.6005 22.2053 8.76893 22.4743C7.93744 22.7433 7.09343 22.7658 6.37682 22.3521C5.66022 21.9383 5.25768 21.1962 5.07489 20.3416C4.89208 19.4869 4.91169 18.4531 5.09243 17.325C5.45461 15.0644 6.4852 12.2944 8.07978 9.53246C9.67436 6.77056 11.558 4.49303 13.3347 3.04907C14.2213 2.32849 15.1067 1.79461 15.9383 1.52559C16.7698 1.2566 17.6138 1.23412 18.3304 1.64785C19.047 2.06159 19.4496 2.80376 19.6323 3.65835C19.8151 4.51302 19.7955 5.5468 19.6148 6.67491Z" fill="#61DAFB"/>
</svg>
