<svg width="72" height="72" viewBox="0 0 72 72" fill="none" xmlns="http://www.w3.org/2000/svg">
<path fill-rule="evenodd" clip-rule="evenodd" d="M36 54.3251C55.8823 54.3251 72 46.1567 72 36.0812C72 26.0057 55.8823 17.8374 36 17.8374C16.1181 17.8374 -6.10352e-05 26.0057 -6.10352e-05 36.0812C-6.10352e-05 46.1567 16.1181 54.3251 36 54.3251Z" fill="#6E81B6"/>
<path fill-rule="evenodd" clip-rule="evenodd" d="M43.2958 41.9779L45.0815 32.7874C45.4846 30.7131 45.1494 29.166 44.0859 28.1883C43.0555 27.2423 41.3064 26.7822 38.7389 26.7822H35.6463L36.5309 22.2288C36.5475 22.144 36.5451 22.0566 36.5239 21.9729C36.5027 21.8892 36.4633 21.8112 36.4084 21.7446C36.3535 21.6779 36.2845 21.6242 36.2065 21.5873C36.1284 21.5505 36.0431 21.5314 35.9567 21.5314H31.6884C31.4081 21.5314 31.1673 21.7303 31.1138 22.0054L29.2171 31.7623C29.0447 30.6644 28.6199 29.7206 27.9399 28.9418C26.6879 27.5087 24.7076 26.7822 22.0535 26.7822H13.7807C13.5004 26.7822 13.2596 26.9811 13.2061 27.2558L9.36787 47.0054C9.33435 47.1774 9.37918 47.3541 9.49063 47.489C9.60163 47.6244 9.76705 47.7024 9.94249 47.7024H14.2443C14.5247 47.7024 14.7654 47.5034 14.8189 47.2279L15.7475 42.4511H18.9497C20.63 42.4511 22.0422 42.2691 23.1444 41.9104C24.2715 41.5439 25.3088 40.9222 26.223 40.0664C26.9617 39.3877 27.572 38.6277 28.0418 37.808L27.2752 41.7537C27.2416 41.9257 27.2865 42.1033 27.3979 42.2373C27.5089 42.3727 27.6748 42.4507 27.8498 42.4507H32.1181C32.3984 42.4507 32.6392 42.2517 32.6927 41.977L34.7992 31.1363H37.728C38.9761 31.1363 39.3418 31.3848 39.4415 31.4915C39.5316 31.589 39.7188 31.9325 39.5085 33.0151L37.8108 41.7533C37.7945 41.838 37.7971 41.9253 37.8184 42.0089C37.8398 42.0924 37.8793 42.1703 37.9342 42.2369C37.9891 42.3034 38.058 42.3571 38.1359 42.3939C38.2139 42.4308 38.2991 42.45 38.3854 42.4502H42.7216C42.8573 42.4505 42.9888 42.4035 43.0936 42.3173C43.1984 42.2311 43.2699 42.1111 43.2958 41.9779V41.9779ZM23.507 34.3842C23.2389 35.762 22.7339 36.7445 22.0052 37.3047C21.2651 37.8754 20.0815 38.1645 18.4869 38.1645H16.5802L17.9589 31.0697H20.4241C22.235 31.0697 22.9646 31.4567 23.2576 31.781C23.6637 32.2311 23.7499 33.1318 23.507 34.3842V34.3842ZM61.2749 28.9418C60.0234 27.5087 58.0431 26.7822 55.3889 26.7822H47.1161C46.8354 26.7822 46.5951 26.9811 46.5415 27.2558L42.7037 47.0054C42.6698 47.1774 42.7146 47.3541 42.8261 47.489C42.9375 47.624 43.1034 47.7024 43.2775 47.7024H47.5798C47.8605 47.7024 48.1008 47.5034 48.1544 47.2279L49.0829 42.4511H52.2856C53.9663 42.4511 55.3772 42.2691 56.4799 41.9104C57.6073 41.5439 58.6447 40.9222 59.5584 40.0664C60.3211 39.366 60.9484 38.5785 61.4238 37.7283C61.8991 36.8781 62.24 35.93 62.4389 34.9096C62.9278 32.393 62.5365 30.3853 61.2749 28.9418V28.9418ZM57.0867 34.3842C56.8181 35.762 56.3131 36.7445 55.5853 37.3047C54.8448 37.8754 53.6612 38.1645 52.067 38.1645H50.1599L51.5381 31.0697H54.0038C55.8147 31.0697 56.5443 31.4567 56.8377 31.781C57.243 32.2311 57.3296 33.1318 57.0867 34.3842V34.3842Z" fill="white"/>
<path fill-rule="evenodd" clip-rule="evenodd" d="M20.3018 30.4842C21.936 30.4842 23.0256 30.7859 23.5702 31.3892C24.1143 31.9926 24.244 33.0286 23.9593 34.4961C23.6616 36.0245 23.0887 37.1154 22.2398 37.7693C21.3909 38.4231 20.0989 38.7496 18.3646 38.7496H15.7475L17.3538 30.4842H20.3018ZM9.8197 47.1169H14.1215L15.1424 41.8665H18.8273C20.4533 41.8665 21.791 41.6954 22.841 41.3537C23.891 41.012 24.8457 40.4395 25.7045 39.6355C26.4254 38.9734 27.0088 38.242 27.4554 37.4428C27.9016 36.6435 28.2185 35.762 28.4061 34.7978C28.8615 32.4566 28.518 30.6331 27.3766 29.3271C26.2356 28.0207 24.4199 27.3678 21.9312 27.3678H13.6584L9.8197 47.1169V47.1169ZM31.5657 22.1169H35.834L34.8136 27.3678H38.6166C41.0082 27.3678 42.6594 27.7848 43.5675 28.6193C44.4756 29.4538 44.7476 30.8063 44.3846 32.676L42.5989 41.8665H38.2627L39.9604 33.1279C40.1533 32.1336 40.0827 31.4558 39.7471 31.0941C39.4115 30.7328 38.6971 30.5517 37.6053 30.5517H34.1942L31.9954 41.8665H27.727L31.5657 22.1169ZM53.8815 30.4842C55.5157 30.4842 56.6049 30.7859 57.1499 31.3892C57.6941 31.9926 57.8233 33.0286 57.5386 34.4961C57.2418 36.0245 56.6689 37.1154 55.8196 37.7693C54.9711 38.4231 53.6787 38.7496 51.9452 38.7496H49.3281L50.934 30.4842H53.8815V30.4842ZM43.3986 47.1169H47.7008L48.7212 41.8665H52.4062C54.0326 41.8665 55.3703 41.6954 56.4203 41.3537C57.4703 41.012 58.425 40.4395 59.2838 39.6355C60.0047 38.9734 60.5881 38.242 61.0343 37.4428C61.4805 36.6435 61.7978 35.762 61.9859 34.7978C62.4408 32.4566 62.0973 30.6331 60.9563 29.3271C59.8145 28.0207 57.9992 27.3678 55.5105 27.3678H47.2377L43.3986 47.1169V47.1169Z" fill="black"/>
</svg>
