<svg width="32" height="32" viewBox="0 0 32 32" fill="none" xmlns="http://www.w3.org/2000/svg">
<g filter="url(#filter0_d_568_4664)">
<path d="M27.3002 5.42943C27.3088 5.46142 27.3133 5.49441 27.3133 5.52756V10.6791C27.3134 10.7452 27.2959 10.8102 27.2628 10.8674C27.2296 10.9246 27.182 10.972 27.1246 11.0049L22.8008 13.4943V18.4285C22.8008 18.5627 22.7295 18.6867 22.613 18.7543L13.5875 23.95C13.5669 23.9617 13.5443 23.9692 13.5218 23.9772C13.5133 23.98 13.5054 23.9852 13.4964 23.9875C13.4333 24.0042 13.367 24.0042 13.3039 23.9875C13.2936 23.9847 13.2842 23.9791 13.2744 23.9753C13.2537 23.9678 13.2321 23.9612 13.2124 23.95L4.18875 18.7543C4.13142 18.7214 4.08379 18.6739 4.05065 18.6167C4.01752 18.5595 4.00005 18.4946 4 18.4285V2.97386C4 2.94005 4.0047 2.90719 4.01315 2.87526C4.01596 2.86446 4.02254 2.8546 4.02629 2.8438C4.03334 2.82408 4.03991 2.80389 4.05024 2.78558C4.05728 2.77337 4.06761 2.76351 4.07606 2.75225C4.08686 2.73722 4.09672 2.72173 4.1094 2.70858C4.1202 2.69778 4.13428 2.6898 4.14649 2.68041C4.1601 2.66914 4.17231 2.65693 4.18781 2.64801H4.18828L8.70033 0.0501778C8.75746 0.0173025 8.82222 0 8.88813 0C8.95405 0 9.01881 0.0173025 9.07594 0.0501778L13.588 2.64801H13.5889C13.604 2.6574 13.6166 2.66914 13.6302 2.67994C13.6425 2.68933 13.6561 2.69778 13.6669 2.70811C13.68 2.72173 13.6894 2.73722 13.7007 2.75225C13.7087 2.76351 13.7195 2.77337 13.726 2.78558C13.7368 2.80436 13.7429 2.82408 13.7504 2.8438C13.7542 2.8546 13.7608 2.86446 13.7636 2.87573C13.7722 2.90772 13.7767 2.94071 13.7767 2.97386V12.6266L17.5366 10.4617V5.52709C17.5366 5.49422 17.5413 5.46089 17.5498 5.42943C17.5531 5.41816 17.5592 5.4083 17.5629 5.3975C17.5704 5.37778 17.577 5.35759 17.5873 5.33928C17.5944 5.32707 17.6047 5.31721 17.6127 5.30595C17.6239 5.29092 17.6333 5.27543 17.6465 5.26228C17.6573 5.25148 17.6709 5.2435 17.6831 5.23411C17.6972 5.22284 17.7094 5.21063 17.7244 5.20171H17.7249L22.2374 2.60388C22.2945 2.57096 22.3593 2.55363 22.4252 2.55363C22.4911 2.55363 22.5559 2.57096 22.613 2.60388L27.1251 5.20171C27.141 5.2111 27.1532 5.22284 27.1673 5.23364C27.1791 5.24303 27.1927 5.25148 27.2035 5.26181C27.2166 5.27543 27.226 5.29092 27.2373 5.30595C27.2457 5.31721 27.2561 5.32707 27.2626 5.33928C27.2734 5.35759 27.2795 5.37778 27.2871 5.3975C27.2913 5.4083 27.2974 5.41816 27.3002 5.42943ZM26.5612 10.4617V6.17784L24.9822 7.08682L22.8008 8.34278V12.6266L26.5617 10.4617H26.5612ZM22.0491 18.2111V13.9244L19.9034 15.1498L13.7763 18.6468V22.9739L22.0491 18.2111ZM4.75216 3.62414V18.2111L13.0241 22.9734V18.6473L8.70267 16.2015L8.70126 16.2006L8.69939 16.1997C8.68483 16.1912 8.67262 16.179 8.65901 16.1687C8.64727 16.1593 8.63365 16.1518 8.62332 16.1414L8.62239 16.14C8.61018 16.1283 8.60173 16.1137 8.5914 16.1006C8.58201 16.0879 8.57074 16.0771 8.56323 16.064L8.56276 16.0626C8.55431 16.0485 8.54914 16.0316 8.54304 16.0156C8.53693 16.0015 8.52895 15.9884 8.5252 15.9734V15.9729C8.5205 15.955 8.51956 15.9363 8.51768 15.918C8.51581 15.9039 8.51205 15.8898 8.51205 15.8757V5.78908L6.33115 4.53265L4.75216 3.62461V3.62414ZM8.8886 0.809856L5.12919 2.97386L8.88766 5.13786L12.6466 2.97339L8.88766 0.809856H8.8886ZM10.8437 14.315L13.0246 13.0595V3.62414L11.4456 4.53312L9.26421 5.78908V15.2245L10.8437 14.315ZM22.4252 3.36356L18.6663 5.52756L22.4252 7.69156L26.1837 5.52709L22.4252 3.36356ZM22.0491 8.34278L19.8678 7.08682L18.2888 6.17784V10.4617L20.4697 11.7172L22.0491 12.6266V8.34278ZM13.3997 17.9965L18.9132 14.8489L21.6693 13.276L17.9132 11.1134L13.5885 13.6032L9.64687 15.8724L13.3997 17.9965Z" fill="#FF2D20"/>
</g>
<defs>
<filter id="filter0_d_568_4664" x="0" y="0" width="31.3132" height="32" filterUnits="userSpaceOnUse" color-interpolation-filters="sRGB">
<feFlood flood-opacity="0" result="BackgroundImageFix"/>
<feColorMatrix in="SourceAlpha" type="matrix" values="0 0 0 0 0 0 0 0 0 0 0 0 0 0 0 0 0 0 127 0" result="hardAlpha"/>
<feOffset dy="4"/>
<feGaussianBlur stdDeviation="2"/>
<feComposite in2="hardAlpha" operator="out"/>
<feColorMatrix type="matrix" values="0 0 0 0 0 0 0 0 0 0 0 0 0 0 0 0 0 0 0.25 0"/>
<feBlend mode="normal" in2="BackgroundImageFix" result="effect1_dropShadow_568_4664"/>
<feBlend mode="normal" in="SourceGraphic" in2="effect1_dropShadow_568_4664" result="shape"/>
</filter>
</defs>
</svg>
