<svg width="24" height="24" viewBox="0 0 24 24" fill="none" xmlns="http://www.w3.org/2000/svg">
<path d="M23.4835 3.55221L12.4155 23.6867C12.187 24.1024 11.5999 24.1049 11.3679 23.6912L0.0805028 3.55409C-0.172231 3.10334 0.206686 2.55728 0.70884 2.64866L11.7887 4.66335C11.8594 4.6762 11.9318 4.67607 12.0024 4.66297L22.8506 2.65147C23.3511 2.55868 23.7317 3.10053 23.4835 3.55221Z" fill="url(#paint0_linear_568_4698)"/>
<path d="M17.0665 0.00590898L8.87592 1.63867C8.81047 1.65172 8.75115 1.68651 8.70726 1.7376C8.66338 1.78868 8.63743 1.85316 8.63349 1.92088L8.12968 10.5778C8.12691 10.6252 8.13506 10.6727 8.15347 10.7164C8.17189 10.7602 8.20007 10.7989 8.23578 10.8296C8.27149 10.8603 8.31374 10.8821 8.35918 10.8933C8.40462 10.9045 8.452 10.9047 8.49755 10.8941L10.778 10.3587C10.9913 10.3086 11.1841 10.4998 11.1402 10.718L10.4627 14.0932C10.4172 14.3204 10.6267 14.5145 10.8448 14.4471L12.2533 14.0118C12.4716 13.9444 12.6815 14.1392 12.6353 14.3665L11.5586 19.6681C11.4912 19.9997 11.9248 20.1805 12.1056 19.8963L12.2264 19.7064L18.9006 6.15588C19.0124 5.92901 18.8196 5.6703 18.5748 5.71843L16.2274 6.17929C16.0069 6.22254 15.8192 6.01356 15.8814 5.79408L17.4135 0.391019C17.4758 0.170983 17.2874 -0.0380983 17.0666 0.00590898H17.0665Z" fill="url(#paint1_linear_568_4698)"/>
<defs>
<linearGradient id="paint0_linear_568_4698" x1="-0.195089" y1="4.27313" x2="12.009" y2="20.565" gradientUnits="userSpaceOnUse">
<stop stop-color="#41D1FF"/>
<stop offset="1" stop-color="#BD34FE"/>
</linearGradient>
<linearGradient id="paint1_linear_568_4698" x1="12.8155" y1="0.449237" x2="15.3551" y2="17.5738" gradientUnits="userSpaceOnUse">
<stop stop-color="#FFEA83"/>
<stop offset="0.083" stop-color="#FFDD35"/>
<stop offset="1" stop-color="#FFA800"/>
</linearGradient>
</defs>
</svg>
